<svg xmlns="http://www.w3.org/2000/svg" width="1280" height="720" viewBox="0 0 1280 720" role="img" aria-labelledby="title desc">
  <title id="title">Captura de Sintaxgram</title>
  <desc id="desc">Vista previa de la interfaz de Sintaxgram con barras de herramientas, editor y diagrama de análisis sintáctico.</desc>
  <defs>
    <style>
      .sans{font-family:system-ui,-apple-system,Segoe UI,Roboto,Ubuntu,Cantarell,Noto Sans,sans-serif}
      .mono{font-family:'Courier New',Consolas,monospace}
      .serif{font-family:Georgia,'Times New Roman',serif}
      .title{font-size:18px;font-weight:600;fill:#1a1a1a}.sub{font-size:12px;fill:#666}.small{font-size:11px;fill:#666}
      .chip{font-size:11px;fill:#fff}.btn{font-size:13px;fill:#1a1a1a}.code{font-size:14px;fill:#333}.diag{font-size:24px;fill:#111}.tag{font-size:18px;fill:#666}
    </style>
    <filter id="shadow"><feDropShadow dx="0" dy="2" stdDeviation="4" flood-color="#000" flood-opacity="0.14"/></filter>
  </defs>
  <rect width="1280" height="720" fill="#f2f4f7"/>
  <rect x="40" y="26" width="1200" height="668" rx="14" fill="#fff" stroke="#d8dde4" filter="url(#shadow)"/>
  <rect x="40" y="26" width="1200" height="46" rx="14" fill="#0f6cbf"/><rect x="40" y="58" width="1200" height="14" fill="#0f6cbf"/>
  <text x="68" y="55" class="serif" font-size="28" fill="#fff">zdro.</text>
  <text x="66" y="104" class="sans title">Sintaxgram</text><text x="178" y="104" class="sans sub">Análisis sintáctico — sintaxismark v0.6.20</text>
  <line x1="56" y1="118" x2="1224" y2="118" stroke="#ddd"/>
  <rect x="56" y="118" width="1168" height="54" fill="#f5f5f5"/><text x="74" y="145" class="sans small">Arriba:</text>
  <g class="mono chip"><rect x="126" y="130" width="48" height="22" rx="4" fill="#4a90d9"/><text x="140" y="145">SES</text><rect x="180" y="130" width="48" height="22" rx="4" fill="#4a90d9"/><text x="194" y="145">SEC</text><rect x="234" y="130" width="40" height="22" rx="4" fill="#4a90d9"/><text x="248" y="145">ST</text><rect x="280" y="130" width="48" height="22" rx="4" fill="#4a90d9"/><text x="292" y="145">PVS</text><rect x="334" y="130" width="48" height="22" rx="4" fill="#4a90d9"/><text x="346" y="145">PVC</text></g>
  <text x="410" y="145" class="sans small">Caja:</text><g class="mono chip"><rect x="452" y="130" width="46" height="22" rx="4" fill="#6c757d"/><text x="464" y="145">OD*</text><rect x="504" y="130" width="46" height="22" rx="4" fill="#6c757d"/><text x="516" y="145">OI*</text><rect x="556" y="130" width="46" height="22" rx="4" fill="#6c757d"/><text x="568" y="145">MI*</text><rect x="608" y="130" width="56" height="22" rx="4" fill="#6c757d"/><text x="618" y="145">CCL*</text></g>
  <rect x="56" y="172" width="1168" height="96" fill="#f5f5f5" stroke="#ddd"/><text x="74" y="206" class="mono code">[ SES{N{Juan}} PVS{NV{analiza} OD*{MD{una} N{oración}}} ]</text><text x="74" y="232" class="mono small">Etiquetas personalizadas · exportación SVG/PNG · copia al portapapeles</text>
  <rect x="56" y="268" width="1168" height="306" fill="#fff"/>
  <text x="310" y="326" class="sans tag">ses</text><path d="M280 334 H430 M280 334 V346 M430 334 V346" stroke="#444" stroke-width="2" fill="none"/>
  <text x="660" y="326" class="sans tag">pvs</text><path d="M520 334 H980 M520 334 V346 M980 334 V346" stroke="#444" stroke-width="2" fill="none"/>
  <text x="330" y="398" class="sans diag">Juan</text><text x="548" y="398" class="sans diag">analiza</text><text x="740" y="398" class="sans diag">una</text><text x="850" y="398" class="sans diag">oración</text>
  <text x="332" y="440" class="sans tag">n</text><line x1="325" y1="448" x2="369" y2="448" stroke="#777" stroke-width="1.5"/><text x="567" y="440" class="sans tag">nv</text><line x1="552" y1="448" x2="636" y2="448" stroke="#777" stroke-width="1.5"/><text x="752" y="440" class="sans tag">md</text><text x="871" y="440" class="sans tag">n</text><line x1="862" y1="448" x2="930" y2="448" stroke="#777" stroke-width="1.5"/>
  <text x="785" y="495" class="sans tag">od</text><path d="M715 468 V500 H965 V468" fill="none" stroke="#444" stroke-width="2"/>
  <rect x="56" y="574" width="1168" height="56" fill="#f5f5f5" stroke="#ddd"/><rect x="74" y="587" width="132" height="30" rx="5" fill="#fff" stroke="#ccc"/><text x="102" y="606" class="sans btn">↓ Descargar SVG</text><rect x="220" y="587" width="132" height="30" rx="5" fill="#fff" stroke="#ccc"/><text x="248" y="606" class="sans btn">↓ Descargar PNG</text><rect x="366" y="587" width="104" height="30" rx="5" fill="#fff" stroke="#ccc"/><text x="393" y="606" class="sans btn">Copiar SVG</text>
  <text x="74" y="662" class="sans small">Vista previa de la herramienta web para generar diagramas de análisis sintáctico.</text>
</svg>
